<svg xmlns="http://www.w3.org/2000/svg" xmlns:xlink="http://www.w3.org/1999/xlink" width="500" zoomAndPan="magnify" viewBox="0 0 375 374.999991" height="500" preserveAspectRatio="xMidYMid meet" version="1.0"><rect x="-37.5" width="450" fill="#ffffff" y="-37.499999" height="449.999989" fill-opacity="1"/><rect x="-37.5" width="450" fill="#ffffff" y="-37.499999" height="449.999989" fill-opacity="1"/><path fill="#25d366" d="M 320.355469 54.78125 C 285.109375 19.472656 238.234375 0.0195312 188.289062 0 C 85.367188 0 1.605469 83.792969 1.570312 186.785156 C 1.554688 219.710938 10.15625 251.847656 26.496094 280.167969 L 0.00390625 376.976562 L 98.984375 351 C 126.253906 365.886719 156.960938 373.722656 188.207031 373.734375 L 188.289062 373.734375 C 291.1875 373.734375 374.960938 289.933594 374.996094 186.9375 C 375.011719 137.023438 355.613281 90.097656 320.355469 54.789062 Z M 188.289062 342.1875 L 188.226562 342.1875 C 160.382812 342.179688 133.066406 334.691406 109.234375 320.546875 L 103.570312 317.179688 L 44.832031 332.59375 L 60.507812 275.296875 L 56.816406 269.421875 C 41.285156 244.699219 33.074219 216.128906 33.09375 186.796875 C 33.128906 101.195312 102.746094 31.546875 188.351562 31.546875 C 229.800781 31.5625 268.761719 47.730469 298.066406 77.082031 C 327.367188 106.425781 343.492188 145.441406 343.472656 186.921875 C 343.4375 272.53125 273.820312 342.179688 188.289062 342.179688 Z M 273.410156 225.910156 C 268.746094 223.570312 245.808594 212.285156 241.527344 210.726562 C 237.25 209.167969 234.144531 208.390625 231.035156 213.066406 C 227.929688 217.742188 218.988281 228.257812 216.265625 231.363281 C 213.542969 234.480469 210.820312 234.867188 206.15625 232.527344 C 201.492188 230.191406 186.460938 225.265625 168.636719 209.367188 C 154.769531 196.988281 145.402344 181.707031 142.683594 177.03125 C 139.960938 172.355469 142.398438 169.832031 144.722656 167.511719 C 146.820312 165.414062 149.386719 162.054688 151.726562 159.332031 C 154.0625 156.609375 154.832031 154.65625 156.390625 151.550781 C 157.949219 148.433594 157.167969 145.710938 156.003906 143.371094 C 154.839844 141.035156 145.511719 118.058594 141.617188 108.71875 C 137.832031 99.617188 133.980469 100.855469 131.125 100.703125 C 128.402344 100.566406 125.296875 100.539062 122.183594 100.539062 C 119.066406 100.539062 114.015625 101.703125 109.738281 106.378906 C 105.457031 111.054688 93.40625 122.351562 93.40625 145.316406 C 93.40625 168.28125 110.121094 190.484375 112.460938 193.601562 C 114.796875 196.71875 145.359375 243.859375 192.15625 264.082031 C 203.285156 268.894531 211.976562 271.769531 218.753906 273.917969 C 229.925781 277.472656 240.097656 276.972656 248.136719 275.773438 C 257.097656 274.429688 275.738281 264.476562 279.621094 253.578125 C 283.507812 242.675781 283.507812 233.324219 282.34375 231.382812 C 281.179688 229.4375 278.066406 228.265625 273.402344 225.925781 Z M 273.410156 225.910156 " fill-opacity="1" fill-rule="evenodd"/></svg>